<svg width="1000" height="250" viewBox="0 0 1000 250" fill="none" xmlns="http://www.w3.org/2000/svg">
<rect width="1000" height="250" fill="white"/>
<path d="M232.781 210.131L232.788 210.139L232.794 210.147C234.062 211.757 234.227 213.859 233.508 215.563C232.799 217.242 231.251 218.498 229.048 218.498H190.531C190.025 218.498 189.069 218.208 188.089 217.665C187.098 217.116 186.38 216.473 186.141 215.989L186.102 215.909L186.049 215.838L123.364 130.709L121.559 128.257V131.302V213.363C121.559 216.737 118.898 219.265 116.517 219.265H84.7972C81.5877 219.265 79 216.66 79 213.363V33.9023C79 30.6055 81.5877 28 84.7972 28H116.517C119.727 28 122.314 30.6055 122.314 33.9023V106.76V109.646L124.1 107.379L184.519 30.6865L184.584 30.6039L184.631 30.5094C184.869 30.025 185.587 29.3822 186.578 28.8334C187.559 28.2904 188.514 28 189.02 28H223.006C225.209 28 226.757 29.2566 227.466 30.9359C228.185 32.6395 228.02 34.7415 226.752 36.3512L163.312 116.878L162.835 117.484L163.299 118.1L232.781 210.131Z" fill="#1B2229" stroke="#1B2229" stroke-width="2"/>
<path d="M257.992 32.3685C257.992 29.8385 259.825 28 262.279 28H295.509C297.964 28 299.796 29.8385 299.796 32.3685V144.34C299.796 164.021 314.55 179.851 334.027 179.851C354.244 179.851 369.012 164.036 369.012 144.34V32.3685C369.012 29.8385 370.845 28 373.299 28H406.53C408.984 28 410.816 29.8385 410.816 32.3685V146.64C410.816 188.258 376.534 222.333 334.027 222.333C291.532 222.333 257.992 188.271 257.992 146.64V32.3685Z" fill="#1B2229" stroke="#1B2229" stroke-width="2"/>
<path d="M550.305 121.218L548.476 122.202L550.386 123.018C564.693 129.136 586.03 142.702 586.03 167.347C586.03 197.349 559.421 219.265 528.122 219.265H460.905C458.451 219.265 456.619 217.427 456.619 214.897V32.3685C456.619 29.8385 458.451 28 460.905 28H524.345C555.648 28 581.499 49.919 581.499 78.384C581.499 88.8121 576.917 97.7931 570.694 105.055C564.469 112.321 556.646 117.809 550.305 121.218ZM497.912 65.8802H496.912V66.8802V105.226V106.226H497.912H519.059C530.249 106.226 538.94 96.5091 538.94 85.2864C538.94 73.9331 529.363 65.8802 519.059 65.8802H497.912ZM497.912 141.039H496.912V142.039V181.152V182.152H497.912H522.835C533.975 182.152 543.471 172.487 543.471 161.212C543.471 155.473 540.443 150.415 536.021 146.823C531.601 143.232 525.716 141.039 519.814 141.039H497.912Z" fill="#1B2229" stroke="#1B2229" stroke-width="2"/>
<path d="M622.771 32.3685C622.771 29.8385 624.604 28 627.058 28H659.534C661.988 28 663.82 29.8385 663.82 32.3685V214.897C663.82 217.427 661.988 219.265 659.534 219.265H627.058C624.604 219.265 622.771 217.427 622.771 214.897V32.3685Z" fill="#1B2229" stroke="#1B2229" stroke-width="2"/>
<path d="M752.524 121.859L752.855 121.325L752.518 120.795L697.394 34.1469C696.423 32.4944 696.487 30.9758 697.119 29.9053C697.757 28.8264 699.092 28 701.073 28H741.101C742.842 28 744.06 29.1346 744.837 29.9188L775.74 81.201L776.587 82.6052L777.448 81.2101L809.108 29.9226C809.885 29.1383 811.105 28 812.848 28H852.876C854.856 28 856.192 28.8264 856.83 29.9053C857.462 30.9758 857.526 32.4944 856.555 34.1469L801.431 120.795L801.092 121.329L801.428 121.864L858.819 213.117C859.791 214.77 859.728 216.289 859.095 217.36C858.458 218.439 857.122 219.265 855.142 219.265H817.38C816.772 219.265 815.968 219.106 815.242 218.779C814.505 218.446 813.981 218.002 813.746 217.523L813.722 217.475L813.693 217.429L778.197 161.444L777.902 160.979H777.352H776.597H776.04L775.747 161.452L741.065 217.342C740.288 218.126 739.069 219.265 737.324 219.265H699.562C697.582 219.265 696.246 218.439 695.609 217.36C694.976 216.289 694.913 214.768 695.886 213.114L752.524 121.859Z" fill="#1B2229" stroke="#1B2229" stroke-width="2"/>
<path d="M916.178 219.292H890.867C888.572 219.292 886.767 217.432 886.767 215.115V187.872C886.767 185.562 888.628 183.695 890.867 183.695H916.178C918.416 183.695 920.278 185.562 920.278 187.872V215.115C920.278 217.424 918.416 219.292 916.178 219.292Z" fill="#DD3E7D" stroke="#DD3E7D" stroke-width="2"/>
<path d="M232.781 210.131L232.788 210.139L232.794 210.147C234.062 211.757 234.227 213.859 233.508 215.563C232.799 217.242 231.251 218.498 229.048 218.498H190.531C190.025 218.498 189.069 218.208 188.089 217.665C187.098 217.116 186.38 216.473 186.141 215.989L186.102 215.909L186.049 215.838L123.364 130.709L121.559 128.257V131.302V213.363C121.559 216.737 118.898 219.265 116.517 219.265H84.7972C81.5877 219.265 79 216.66 79 213.363V33.9023C79 30.6055 81.5877 28 84.7972 28H116.517C119.727 28 122.314 30.6055 122.314 33.9023V106.76V109.646L124.1 107.379L184.519 30.6865L184.584 30.6039L184.631 30.5094C184.869 30.025 185.587 29.3822 186.578 28.8334C187.559 28.2904 188.514 28 189.02 28H223.006C225.209 28 226.757 29.2566 227.466 30.9359C228.185 32.6395 228.02 34.7415 226.752 36.3512L163.312 116.878L162.835 117.484L163.299 118.1L232.781 210.131Z" fill="#1B2229" stroke="#1B2229" stroke-width="2"/>
<path d="M257.992 32.3685C257.992 29.8385 259.825 28 262.279 28H295.509C297.964 28 299.796 29.8385 299.796 32.3685V144.34C299.796 164.021 314.55 179.851 334.027 179.851C354.244 179.851 369.012 164.036 369.012 144.34V32.3685C369.012 29.8385 370.845 28 373.299 28H406.53C408.984 28 410.816 29.8385 410.816 32.3685V146.64C410.816 188.258 376.534 222.333 334.027 222.333C291.532 222.333 257.992 188.271 257.992 146.64V32.3685Z" fill="#1B2229" stroke="#1B2229" stroke-width="2"/>
<path d="M550.305 121.218L548.476 122.202L550.386 123.018C564.693 129.136 586.03 142.702 586.03 167.347C586.03 197.349 559.421 219.265 528.122 219.265H460.905C458.451 219.265 456.619 217.427 456.619 214.897V32.3685C456.619 29.8385 458.451 28 460.905 28H524.345C555.648 28 581.499 49.919 581.499 78.384C581.499 88.8121 576.917 97.7931 570.694 105.055C564.469 112.321 556.646 117.809 550.305 121.218ZM497.912 65.8802H496.912V66.8802V105.226V106.226H497.912H519.059C530.249 106.226 538.94 96.5091 538.94 85.2864C538.94 73.9331 529.363 65.8802 519.059 65.8802H497.912ZM497.912 141.039H496.912V142.039V181.152V182.152H497.912H522.835C533.975 182.152 543.471 172.487 543.471 161.212C543.471 155.473 540.443 150.415 536.021 146.823C531.601 143.232 525.716 141.039 519.814 141.039H497.912Z" fill="#1B2229" stroke="#1B2229" stroke-width="2"/>
<path d="M622.771 32.3685C622.771 29.8385 624.604 28 627.058 28H659.534C661.988 28 663.82 29.8385 663.82 32.3685V214.897C663.82 217.427 661.988 219.265 659.534 219.265H627.058C624.604 219.265 622.771 217.427 622.771 214.897V32.3685Z" fill="#1B2229" stroke="#1B2229" stroke-width="2"/>
<path d="M752.524 121.859L752.855 121.325L752.518 120.795L697.394 34.1469C696.423 32.4944 696.487 30.9758 697.119 29.9053C697.757 28.8264 699.092 28 701.073 28H741.101C742.842 28 744.06 29.1346 744.837 29.9188L775.74 81.201L776.587 82.6052L777.448 81.2101L809.108 29.9226C809.885 29.1383 811.105 28 812.848 28H852.876C854.856 28 856.192 28.8264 856.83 29.9053C857.462 30.9758 857.526 32.4944 856.555 34.1469L801.431 120.795L801.092 121.329L801.428 121.864L858.819 213.117C859.791 214.77 859.728 216.289 859.095 217.36C858.458 218.439 857.122 219.265 855.142 219.265H817.38C816.772 219.265 815.968 219.106 815.242 218.779C814.505 218.446 813.981 218.002 813.746 217.523L813.722 217.475L813.693 217.429L778.197 161.444L777.902 160.979H777.352H776.597H776.04L775.747 161.452L741.065 217.342C740.288 218.126 739.069 219.265 737.324 219.265H699.562C697.582 219.265 696.246 218.439 695.609 217.36C694.976 216.289 694.913 214.768 695.886 213.114L752.524 121.859Z" fill="#1B2229" stroke="#1B2229" stroke-width="2"/>
<path d="M916.178 219.292H890.867C888.572 219.292 886.767 217.432 886.767 215.115V187.872C886.767 185.563 888.628 183.695 890.867 183.695H916.178C918.416 183.695 920.278 185.563 920.278 187.872V215.115C920.278 217.424 918.416 219.292 916.178 219.292Z" fill="#DD3E7D" stroke="#DD3E7D" stroke-width="2"/>
</svg>
